<svg xmlns="http://www.w3.org/2000/svg" viewBox="0 0 200 200" width="200" height="200">
  <defs>
    
    <linearGradient id="dial" x1="0" y1="0" x2="1" y2="1">
      <stop offset="0" stop-color="#a78bfa"></stop>
      <stop offset="1" stop-color="#6d4ed3"></stop>
    </linearGradient>
  </defs>
  
  <circle cx="100" cy="100" r="96" fill="none" stroke="rgba(167,139,250,0.18)" stroke-width="1.6"></circle>
  
  <circle cx="100" cy="100" r="88" fill="none" stroke="rgba(167,139,250,0.35)" stroke-width="2"></circle>
  
  <g stroke-linecap="round">
    
    <line x1="100" y1="12" x2="100" y2="25.6" stroke="rgba(255,255,255,0.85)" stroke-width="3.6"></line>
    <line x1="188" y1="100" x2="174.4" y2="100" stroke="rgba(255,255,255,0.85)" stroke-width="3.6"></line>
    <line x1="100" y1="188" x2="100" y2="174.4" stroke="rgba(255,255,255,0.85)" stroke-width="3.6"></line>
    <line x1="12" y1="100" x2="25.6" y2="100" stroke="rgba(255,255,255,0.85)" stroke-width="3.6"></line>
    
    <line x1="144.4" y1="20.2" x2="137.6" y2="32.0" stroke="rgba(255,255,255,0.5)" stroke-width="2.4"></line>
    <line x1="179.8" y1="55.6" x2="168.0" y2="62.4" stroke="rgba(255,255,255,0.5)" stroke-width="2.4"></line>
    <line x1="179.8" y1="144.4" x2="168.0" y2="137.6" stroke="rgba(255,255,255,0.5)" stroke-width="2.4"></line>
    <line x1="144.4" y1="179.8" x2="137.6" y2="168.0" stroke="rgba(255,255,255,0.5)" stroke-width="2.4"></line>
    <line x1="55.6" y1="179.8" x2="62.4" y2="168.0" stroke="rgba(255,255,255,0.5)" stroke-width="2.4"></line>
    <line x1="20.2" y1="144.4" x2="32.0" y2="137.6" stroke="rgba(255,255,255,0.5)" stroke-width="2.4"></line>
    <line x1="20.2" y1="55.6" x2="32.0" y2="62.4" stroke="rgba(255,255,255,0.5)" stroke-width="2.4"></line>
    <line x1="55.6" y1="20.2" x2="62.4" y2="32.0" stroke="rgba(255,255,255,0.5)" stroke-width="2.4"></line>
  </g>
  
  <circle cx="100" cy="100" r="72" fill="url(#dial)"></circle>
  
  <circle cx="100" cy="100" r="52" fill="none" stroke="rgba(255,255,255,0.18)" stroke-width="1.6"></circle>
  <circle cx="100" cy="100" r="34" fill="none" stroke="rgba(255,255,255,0.10)" stroke-width="1.2"></circle>
  
  <polygon points="100,10 95.5,22 104.5,22" fill="#1a1722"></polygon>
  
  <text x="100" y="105" text-anchor="middle" dominant-baseline="middle" font-family="&#39;Space Grotesk&#39;, system-ui, sans-serif" font-weight="700" font-size="36" fill="white" letter-spacing="-1.5">CV</text>
</svg>